<svg width="600" height="79" viewBox="0 0 600 79" fill="none" xmlns="http://www.w3.org/2000/svg">
<g clip-path="url(#clip0_338_2)">
<path d="M352.53 69.93L347.99 78.27C347.8 78.62 347.43 78.84 347.02 78.84H332.44C331.6 78.84 331.07 77.94 331.47 77.21L367.72 11.32C368.14 10.56 369.23 10.56 369.65 11.32L405.82 77.21C406.22 77.94 405.69 78.84 404.85 78.84H389.68C389.27 78.84 388.9 78.61 388.71 78.25L384.33 69.94C384.14 69.58 383.76 69.35 383.36 69.35H353.5C353.1 69.35 352.73 69.57 352.53 69.92V69.93ZM376.28 54.44L369.67 41.96C369.26 41.18 368.14 41.18 367.72 41.96L361.07 54.44C360.68 55.17 361.21 56.06 362.04 56.06H375.31C376.14 56.06 376.67 55.18 376.28 54.44Z" fill="#134e4A"/>
<path d="M62.95 26.68H40.78C40.17 26.68 39.68 27.17 39.68 27.78V77.28C39.68 77.89 39.19 78.38 38.58 78.38H25.49C24.88 78.38 24.39 77.89 24.39 77.28V27.78C24.39 27.17 23.9 26.68 23.29 26.68H1.1C0.49 26.68 0 26.19 0 25.58V12.6C0 11.99 0.49 11.5 1.1 11.5H62.95C63.56 11.5 64.05 11.99 64.05 12.6V25.58C64.05 26.19 63.56 26.68 62.95 26.68Z" fill="#134e4A"/>
<path d="M483.15 78.84H468.96C468.58 78.84 468.22 78.64 468.02 78.31L457.38 60.98C456.96 60.29 456.19 59.9 455.39 59.94L436.7 59.97C435.5 59.97 434.52 61.02 434.52 62.23V77.5C434.52 78.11 434.03 78.6 433.42 78.6H420.43C419.82 78.6 419.33 78.11 419.33 77.5V12.6C419.33 11.99 419.82 11.5 420.43 11.5H452.5C458.11 11.5 463.27 12.58 467.99 14.75C472.71 16.92 476.45 19.85 479.22 23.54C481.99 27.24 483.38 31.28 483.38 35.68C483.38 39.83 482.17 43.67 479.75 47.21C477.53 50.44 474.59 53.14 470.93 55.28C470.38 55.6 470.2 56.31 470.55 56.84L484.08 77.14C484.57 77.87 484.04 78.85 483.16 78.85L483.15 78.84ZM454.5 44.61C456.59 44.61 458.49 44.2 460.23 43.39C461.97 42.58 463.35 41.49 464.37 40.13C465.39 38.76 465.9 37.27 465.9 35.65C465.9 34.03 465.39 32.6 464.37 31.24C463.35 29.87 461.97 28.79 460.23 27.98C458.49 27.17 456.58 26.76 454.5 26.76H435.62C435.01 26.76 434.52 27.25 434.52 27.86V43.51C434.52 44.12 435.01 44.61 435.62 44.61H454.5Z" fill="#134e4A"/>
<path d="M144.35 26.6299H96.7802C96.1702 26.6299 95.6802 27.1199 95.6802 27.7299V36.8799C95.6802 37.4899 96.1702 37.9799 96.7802 37.9799H120.29C120.9 37.9799 121.39 38.4699 121.39 39.0799V52.0899C121.39 52.6999 120.9 53.1899 120.29 53.1899H96.7802C96.1702 53.1899 95.6802 53.6799 95.6802 54.2899V62.2999C95.6802 62.9099 96.1702 63.3999 96.7802 63.3999H144.35C144.96 63.3999 145.45 63.8899 145.45 64.4999V77.4699C145.45 78.0799 144.96 78.5699 144.35 78.5699H81.3002C80.6902 78.5699 80.2002 78.0799 80.2002 77.4699V12.4799C80.2002 11.8699 80.6902 11.3799 81.3002 11.3799H144.35C144.96 11.3799 145.45 11.8699 145.45 12.4799V25.5299C145.45 26.1399 144.96 26.6299 144.35 26.6299Z" fill="#134e4A"/>
<path d="M563.23 26.8901H515.66C515.05 26.8901 514.56 27.3801 514.56 27.9901V37.1401C514.56 37.7501 515.05 38.2401 515.66 38.2401H539.17C539.78 38.2401 540.27 38.7301 540.27 39.3401V52.3501C540.27 52.9601 539.78 53.4501 539.17 53.4501H515.66C515.05 53.4501 514.56 53.9401 514.56 54.5501V62.5601C514.56 63.1701 515.05 63.6601 515.66 63.6601H563.23C563.84 63.6601 564.33 64.1501 564.33 64.7601V77.7301C564.33 78.3401 563.84 78.8301 563.23 78.8301H500.18C499.57 78.8301 499.08 78.3401 499.08 77.7301V12.7401C499.08 12.1301 499.57 11.6401 500.18 11.6401H563.23C563.84 11.6401 564.33 12.1301 564.33 12.7401V25.7901C564.33 26.4001 563.84 26.8901 563.23 26.8901Z" fill="#134e4A"/>
<path d="M579.82 9.22C579.82 4.02 583.99 0 589.4 0C594.81 0 599.11 4.03 599.11 9.22C599.11 14.41 594.85 18.46 589.4 18.46C583.95 18.46 579.82 14.42 579.82 9.22ZM581.44 9.22C581.44 13.55 584.95 16.95 589.4 16.95C593.85 16.95 597.49 13.55 597.49 9.22C597.49 4.89 593.91 1.44 589.4 1.44C584.89 1.44 581.44 4.86 581.44 9.22ZM585.99 4.62H589.87C591.79 4.62 593.01 5.7 593.01 7.41C593.01 8.67 592.33 9.6 591.25 9.93L593.46 13.72H591.68L589.7 10.18H587.51V13.72H585.98V4.62H585.99ZM589.84 8.81C590.9 8.81 591.44 8.25 591.44 7.41C591.44 6.57 590.9 5.99 589.84 5.99H587.52V8.81H589.84Z" fill="#134e4A"/>
<path d="M183.13 40.6799V41.6399C183.13 53.3099 183.13 64.9899 183.13 76.6599C183.13 76.8699 183.13 77.0899 183.13 77.2999C183.09 78.2799 182.69 78.6699 181.71 78.6799C179.61 78.6799 177.51 78.6799 175.41 78.6799C173.5 78.6799 171.59 78.6799 169.68 78.6799C167.94 78.6799 167.78 78.5199 167.78 76.7499C167.78 55.5699 167.78 34.3799 167.78 13.1999C167.78 13.0999 167.78 13.0099 167.78 12.9099C167.78 11.7599 168.1 11.4399 169.28 11.4399C171.14 11.4399 173 11.4399 174.86 11.4399C177.1 11.4399 179.35 11.4399 181.59 11.4399C182.74 11.4399 183.13 11.8199 183.13 12.9899C183.13 17.0599 183.13 21.1199 183.13 25.1899C183.13 27.9999 183.13 30.7999 183.13 33.6099V34.4599C183.55 31.8299 184.17 29.2599 185.19 26.7999C188.74 18.2499 195.23 13.1699 204.19 11.2099C213.48 9.17987 221.41 11.8999 228.17 18.3999C228.56 18.7799 228.95 19.1699 229.31 19.5799C229.92 20.2699 229.9 20.7699 229.24 21.4299C227.12 23.5499 224.99 25.6699 222.87 27.7899C221.93 28.7299 220.98 29.6799 220.04 30.6199C219.23 31.4199 218.76 31.3699 217.91 30.6299C216.71 29.5899 215.56 28.4099 214.19 27.6699C208.24 24.4399 200.59 28.1899 199.17 34.8799C198.52 37.9299 199.03 40.7799 200.41 43.5099C202.13 46.8999 204.63 49.7199 207.24 52.4399C211.39 56.7499 216.01 60.5499 220.91 63.9599C227.96 68.8699 235.13 73.6099 242.23 78.4399C242.56 78.6699 242.78 78.6599 243.11 78.4399C248.65 74.7399 254.23 71.1099 259.72 67.3399C266.16 62.9099 272.47 58.2899 277.88 52.6099C279.97 50.4099 281.91 48.0399 283.71 45.5899C285.55 43.0699 286.59 40.1999 286.49 36.9999C286.27 29.9099 279.57 24.9099 272.9 26.8799C271.02 27.4299 269.48 28.5199 268.11 29.8899C267.89 30.1099 267.68 30.3299 267.46 30.5499C266.62 31.3999 266.14 31.4099 265.3 30.5699C262.31 27.5899 259.33 24.6199 256.35 21.6399C255.37 20.6599 255.39 20.2599 256.33 19.2699C259.94 15.4899 264.16 12.7199 269.25 11.3399C279.89 8.44987 296.71 13.1999 301.22 29.9599C301.63 31.4899 301.89 33.0599 302.25 34.7299C302.25 34.3099 302.25 33.9899 302.25 33.6699C302.25 26.8199 302.25 19.9799 302.25 13.1299C302.25 11.7699 302.57 11.4499 303.93 11.4499C307.94 11.4499 311.95 11.4499 315.95 11.4499C317.27 11.4499 317.56 11.7399 317.56 13.0299C317.56 34.3799 317.56 55.7299 317.56 77.0799C317.56 78.3699 317.25 78.6799 315.97 78.6799C312.01 78.6799 308.05 78.6799 304.09 78.6799C302.53 78.6799 302.25 78.4099 302.25 76.8699C302.25 65.0999 302.25 53.3299 302.25 41.5599C302.25 41.1899 302.25 40.8199 302.25 40.4499C301.26 48.4299 297.19 54.8399 292.05 60.7199C286.81 66.6999 280.72 71.7299 274.34 76.4299C273.38 77.1399 272.42 77.8399 271.44 78.5099C271.18 78.6799 270.84 78.7199 270.53 78.8199C270.49 78.8299 270.44 78.8199 270.39 78.8199C251.9 78.8199 233.41 78.8199 214.92 78.8199C214.55 78.8199 214.12 78.6799 213.82 78.4699C207.62 74.0899 201.61 69.4899 196.36 63.9899C193.95 61.4699 191.67 58.7899 189.57 55.9999C186.16 51.4699 183.92 46.3899 183.15 40.7099L183.13 40.6799Z" fill="url(#paint0_linear_338_2)"/>
</g>
<defs>
<linearGradient id="paint0_linear_338_2" x1="167.78" y1="44.6599" x2="317.56" y2="44.6599" gradientUnits="userSpaceOnUse">
<stop stop-color="#134E4A"/>
<stop offset="0.5" stop-color="#0f766e"/>
<stop offset="1" stop-color="#134E4A"/>
</linearGradient>
<clipPath id="clip0_338_2">
<rect width="599.11" height="78.84" fill="#134e4A"/>
</clipPath>
</defs>
</svg>
